<!-- icon666.com - MILLIONS vector ICONS FREE --><svg version="1.1" id="Capa_1" xmlns="http://www.w3.org/2000/svg" xmlns:xlink="http://www.w3.org/1999/xlink" x="0px" y="0px" viewBox="0 0 512.005 512.005" style="enable-background:new 0 0 512.005 512.005;" xml:space="preserve"><g><polygon style="" points="442.466,151.711 400,151.711 400,183.711 442.466,183.711 434.466,167.711 " fill="#FF5064"></polygon><path style="" d="M400,231.71c0,17.673,10.745,32,24,32s24-14.327,24-32L400,231.71L400,231.71z" fill="#FF5064"></path><path style="" d="M376,263.71c13.255,0,24-14.327,24-32h-48C352,249.383,362.746,263.71,376,263.71z" fill="#FF5064"></path><polygon style="" points="288,7.712 232.001,7.712 232.001,39.712 288,39.712 280,23.712 " fill="#FF5064"></polygon></g><rect x="232.003" y="7.712" style="fill: rgb(230, 25, 56);" width="24" height="32" fill="#D23C53"></rect><polygon style="" points="106.469,151.711 64.003,151.711 64.003,183.711 106.469,183.711 98.469,167.711 " fill="#FF5064"></polygon><path style="" d="M322.599,354.512l-3.965,7.93c-4.065,8.131-12.376,13.267-21.466,13.267H147.534 c-6.887,0-13.001-4.407-15.179-10.94l-8.706-26.119c-2.178-6.533-8.292-10.94-15.179-10.94H24.003v32c0,13.255,10.745,24,24,24 h10.666l14.747,44.239c8.711,26.133,33.168,43.76,60.714,43.76h211.231c23.762,0,45.568-13.165,56.635-34.192l62.003-117.807 l-124.105,21.901C332.411,342.931,325.996,347.716,322.599,354.512z" fill="#96695A"></path><polygon style="" points="256.001,103.711 208.001,103.711 200.001,71.711 264,71.711 " fill="#AA785F"></polygon><g><path style="" d="M208.001,231.71c13.255,0,24-14.327,24-32h-48C184.001,217.383,194.747,231.71,208.001,231.71z" fill="#FF5064"></path><path style="" d="M160.001,231.71c13.255,0,24-14.327,24-32h-48C136.001,217.383,146.747,231.71,160.001,231.71z" fill="#FF5064"></path><path style="" d="M280,199.71c0,17.673,10.745,32,24,32s24-14.327,24-32H280z" fill="#FF5064"></path><path style="" d="M256.001,231.71c13.255,0,24-14.327,24-32h-48C232.001,217.383,242.745,231.71,256.001,231.71z" fill="#FF5064"></path><path style="" d="M232.001,135.711c0,17.673,10.745,32,24,32c13.255,0,24-14.327,24-32H232.001z" fill="#FF5064"></path><path style="" d="M208.001,167.711c13.255,0,24-14.327,24-32h-48C184.001,153.384,194.747,167.711,208.001,167.711z" fill="#FF5064"></path><path style="" d="M64.003,231.71c0,17.673,10.745,32,24,32s24-14.327,24-32L64.003,231.71L64.003,231.71z" fill="#FF5064"></path><path style="" d="M40.003,263.71c13.255,0,24-14.327,24-32h-48C16.003,249.383,26.748,263.71,40.003,263.71z" fill="#FF5064"></path></g><g><path style="" d="M296,391.709c0-4.418-3.582-8-8-8H58.669l5.333,16H288C292.418,399.709,296,396.127,296,391.709z" fill="#825A50"></path><path style="" d="M123.649,338.65c-2.178-6.534-8.292-10.94-15.179-10.94H24.003v24h103.999L123.649,338.65z" fill="#825A50"></path></g><path style="" d="M229.365,97.651l-5.242-20.97c-0.631-2.525,1.278-4.97,3.88-4.97h-28.002l8,32h29.125 C233.454,103.711,230.256,101.213,229.365,97.651z" fill="#96695A"></path><path style="" d="M463.999,479.941c-0.487,0.012-0.853,0.061-1.383,0.061c-7.359,0-10.375-1.164-14.93-2.922 c-5.844-2.262-13.125-5.078-26.461-5.078c-13.328,0-20.609,2.816-26.453,5.078c-4.547,1.758-7.555,2.922-14.898,2.922 s-10.344-1.16-14.891-2.922c-5.844-2.262-13.117-5.078-26.437-5.078s-20.601,2.816-26.445,5.078 c-4.547,1.758-7.547,2.922-14.898,2.922c-7.344,0-10.344-1.16-14.891-2.922c-5.844-2.262-13.117-5.078-26.437-5.078 c-13.328,0-20.601,2.816-26.445,5.078c-4.547,1.762-7.547,2.922-14.891,2.922c-7.344,0-10.344-1.16-14.891-2.922 c-5.844-2.262-13.117-5.078-26.437-5.078s-20.594,2.816-26.445,5.082c-4.539,1.758-7.539,2.918-14.875,2.918 c-7.328,0-10.32-1.16-14.859-2.918c-5.844-2.266-13.109-5.082-26.43-5.082s-20.594,2.816-26.445,5.082 c-4.539,1.758-7.539,2.918-14.875,2.918c-0.492,0-0.827-0.046-1.281-0.056v8.124c0,14.215,14.273,24.054,27.529,18.924 c0.061-0.023,0.121-0.047,0.181-0.07c4.547-1.762,7.547-2.922,14.891-2.922c7.336,0,10.328,1.16,14.867,2.918 c5.844,2.266,13.109,5.082,26.422,5.082c13.32,0,20.586-2.816,26.43-5.078c4.547-1.762,7.547-2.922,14.891-2.922 c7.344,0,10.344,1.16,14.891,2.922c5.844,2.262,13.117,5.078,26.437,5.078s20.594-2.816,26.437-5.078 c4.547-1.758,7.547-2.922,14.898-2.922c7.344,0,10.344,1.16,14.891,2.922c5.844,2.262,13.117,5.078,26.437,5.078 s20.601-2.816,26.445-5.078c4.547-1.758,7.547-2.922,14.898-2.922c7.344,0,10.344,1.16,14.891,2.922 c5.844,2.262,13.117,5.078,26.437,5.078s20.601-2.816,26.445-5.078c4.547-1.758,7.555-2.922,14.906-2.922 c7.359,0,10.375,1.164,14.93,2.922c0.104,0.04,0.208,0.081,0.313,0.121c13.257,5.127,27.531-4.711,27.531-18.924L463.999,479.941z" fill="#7FE1FF"></path><path style="" d="M462.616,488.002c-13.336,0-20.617-2.816-26.461-5.078c-4.555-1.758-7.57-2.922-14.93-2.922 c-7.352,0-10.359,1.164-14.906,2.922c-5.844,2.262-13.125,5.078-26.445,5.078s-20.594-2.816-26.437-5.078 c-4.547-1.762-7.547-2.922-14.891-2.922c-7.352,0-10.351,1.164-14.898,2.922c-5.844,2.262-13.125,5.078-26.445,5.078 s-20.594-2.816-26.437-5.078c-4.547-1.762-7.547-2.922-14.891-2.922c-7.352,0-10.351,1.164-14.898,2.922 c-5.844,2.262-13.117,5.078-26.437,5.078s-20.594-2.816-26.437-5.078c-4.547-1.762-7.547-2.922-14.891-2.922 c-7.344,0-10.344,1.16-14.891,2.922c-5.844,2.262-13.109,5.078-26.43,5.078c-13.312,0-20.578-2.816-26.422-5.082 c-4.539-1.758-7.531-2.918-14.867-2.918c-7.344,0-10.344,1.16-14.891,2.922c-5.844,2.262-13.109,5.078-26.43,5.078 c-13.312,0-20.586-2.816-26.422-5.082c-3.172-1.227-5.453-2.113-8.953-2.574c-8.766-1.156-14.922-9.199-13.766-17.957 c1.156-8.766,9.258-14.922,17.953-13.769c7.305,0.965,12.305,2.906,16.328,4.465c4.531,1.758,7.531,2.918,14.859,2.918 c7.336,0,10.336-1.16,14.875-2.918c5.852-2.266,13.125-5.082,26.445-5.082s20.586,2.816,26.43,5.082 c4.539,1.758,7.531,2.918,14.859,2.918c7.336,0,10.336-1.16,14.875-2.918c5.852-2.266,13.125-5.082,26.445-5.082 s20.594,2.816,26.437,5.078c4.547,1.762,7.547,2.922,14.891,2.922c7.344,0,10.344-1.16,14.891-2.922 c5.844-2.262,13.117-5.078,26.445-5.078c13.32,0,20.594,2.816,26.437,5.078c4.547,1.762,7.547,2.922,14.891,2.922 c7.352,0,10.351-1.164,14.898-2.922c5.844-2.262,13.125-5.078,26.445-5.078s20.594,2.816,26.437,5.078 c4.547,1.762,7.547,2.922,14.891,2.922s10.351-1.164,14.898-2.922c5.844-2.262,13.125-5.078,26.453-5.078 c13.336,0,20.617,2.816,26.461,5.078c4.555,1.758,7.57,2.922,14.93,2.922c7.359,0,10.367-1.164,14.922-2.922 c4.031-1.563,9.055-3.504,16.383-4.461c8.656-1.164,16.797,5.02,17.945,13.785c1.148,8.762-5.023,16.793-13.789,17.941 c-3.523,0.461-5.82,1.352-9,2.582C483.224,485.189,475.944,488.002,462.616,488.002z" fill="#00C3FF"></path><path d="M159.889,400.808h-0.08c-4.142,0-7.46,3.357-7.46,7.5c0,4.142,3.398,7.5,7.54,7.5s7.5-3.358,7.5-7.5 C167.389,404.166,164.032,400.808,159.889,400.808z" fill="#000000"></path><path d="M224.019,400.808h-0.08c-4.142,0-7.46,3.357-7.46,7.5c0,4.142,3.398,7.5,7.54,7.5s7.5-3.358,7.5-7.5 C231.519,404.166,228.161,400.808,224.019,400.808z" fill="#000000"></path><path d="M288.147,400.808h-0.08c-4.142,0-7.46,3.357-7.46,7.5c0,4.142,3.398,7.5,7.54,7.5s7.5-3.358,7.5-7.5 C295.647,404.166,292.289,400.808,288.147,400.808z" fill="#000000"></path><path d="M191.874,400.808h-0.08c-4.142,0-7.46,3.357-7.46,7.5c0,4.142,3.398,7.5,7.54,7.5s7.5-3.358,7.5-7.5 C199.374,404.166,196.016,400.808,191.874,400.808z" fill="#000000"></path><path d="M256.082,400.808h-0.08c-4.142,0-7.46,3.357-7.46,7.5c0,4.142,3.398,7.5,7.54,7.5s7.5-3.358,7.5-7.5 S260.224,400.808,256.082,400.808z" fill="#000000"></path><path d="M127.745,207.389h1.093c2.803,18.241,15.621,32.064,30.972,32.064c9.628,0,18.257-5.443,24.048-13.997 c5.792,8.554,14.42,13.997,24.048,13.997s18.257-5.443,24.048-13.997c5.792,8.554,14.42,13.997,24.048,13.997 c9.628,0,18.257-5.443,24.048-13.997c5.792,8.554,14.42,13.997,24.048,13.997c15.351,0,28.169-13.824,30.972-32.064h1.092 c4.142,0,7.5-3.358,7.5-7.5s-3.358-7.5-7.5-7.5h-96.709v-22.963c4.814,3.735,10.483,5.898,16.548,5.898 c15.351,0,28.169-13.824,30.972-32.064h1.092c4.142,0,7.5-3.357,7.5-7.5c0-4.142-3.358-7.5-7.5-7.5h-48.613v-17.064h16.551 c3.441,0,6.441-2.342,7.276-5.681l8.016-32.064c0.561-2.241,0.057-4.614-1.364-6.435s-3.602-2.885-5.912-2.885h-24.564V47.066 h48.613c2.599,0,5.013-1.346,6.38-3.557s1.491-4.972,0.328-7.297l-6.339-12.678l6.339-12.678c1.163-2.325,1.039-5.086-0.328-7.297 s-3.781-3.557-6.38-3.557h-56.113c-4.142,0-7.5,3.358-7.5,7.5v56.629h-24.564c-2.31,0-4.49,1.064-5.912,2.885 s-1.925,4.194-1.364,6.435l8.016,32.064c0.834,3.339,3.834,5.681,7.276,5.681h16.548v17.064h-48.613c-4.142,0-7.5,3.358-7.5,7.5 c0,4.143,3.358,7.5,7.5,7.5h1.092c2.803,18.241,15.621,32.064,30.972,32.064c6.065,0,11.734-2.163,16.548-5.898v22.963h-96.71 c-4.142,0-7.5,3.358-7.5,7.5S123.603,207.389,127.745,207.389z M273.342,26.888l2.589,5.178h-36.478V15.002h36.478l-2.589,5.178 C272.286,22.291,272.286,24.777,273.342,26.888z M209.495,79.131h44.917l-4.266,17.064h-36.385L209.495,79.131z M159.81,224.453 c-7.217,0-13.529-7.284-15.722-17.064h31.445C173.339,217.17,167.027,224.453,159.81,224.453z M207.906,224.453 c-7.217,0-13.529-7.284-15.722-17.064h31.445C221.436,217.17,215.122,224.453,207.906,224.453z M256.003,224.453 c-7.217,0-13.529-7.284-15.722-17.064h31.445C269.531,217.17,263.22,224.453,256.003,224.453z M304.099,224.453 c-7.217,0-13.529-7.284-15.722-17.064h31.445C317.629,217.17,311.316,224.453,304.099,224.453z M256.003,160.324 c-7.217,0-13.529-7.283-15.722-17.064h31.445C269.531,153.041,263.22,160.324,256.003,160.324z M207.906,160.324 c-7.217,0-13.529-7.283-15.722-17.064h31.445C221.436,153.041,215.122,160.324,207.906,160.324z" fill="#000000"></path><path d="M7.503,239.453h1.092c2.803,18.241,15.621,32.064,30.972,32.064c9.628,0,18.257-5.443,24.048-13.997 c5.792,8.554,14.42,13.997,24.048,13.997c15.351,0,28.169-13.824,30.972-32.064h1.092c4.142,0,7.5-3.358,7.5-7.5s-3.358-7.5-7.5-7.5 H71.116v-33.097h32.581c2.599,0,5.013-1.346,6.38-3.557s1.491-4.973,0.328-7.297l-6.339-12.679l6.339-12.678 c1.163-2.325,1.039-5.086-0.328-7.297c-1.367-2.211-3.781-3.558-6.38-3.558H63.616c-4.142,0-7.5,3.358-7.5,7.5v72.662H7.503 c-4.142,0-7.5,3.358-7.5,7.5S3.361,239.453,7.503,239.453z M39.567,256.518c-7.217,0-13.529-7.284-15.722-17.064H55.29 C53.097,249.234,46.784,256.518,39.567,256.518z M87.664,256.518c-7.217,0-13.529-7.284-15.722-17.064h31.445 C101.193,249.234,94.881,256.518,87.664,256.518z M88.972,171.178l2.589,5.178H71.116v-17.064h20.445l-2.589,5.179 C87.916,166.582,87.916,169.067,88.972,171.178z" fill="#000000"></path><path d="M336.68,231.953c0,4.142,3.358,7.5,7.5,7.5h1.092c2.803,18.241,15.621,32.064,30.972,32.064 c9.628,0,18.257-5.443,24.049-13.997c5.791,8.554,14.42,13.997,24.048,13.997c15.351,0,28.169-13.824,30.972-32.064h1.092 c4.142,0,7.5-3.358,7.5-7.5s-3.358-7.5-7.5-7.5h-48.613v-33.097h32.581c2.599,0,5.013-1.346,6.38-3.557s1.491-4.973,0.328-7.297 l-6.339-12.679l6.339-12.678c1.163-2.325,1.039-5.086-0.328-7.297s-3.781-3.558-6.38-3.558h-40.081c-4.142,0-7.5,3.358-7.5,7.5 v72.662h-48.613C340.038,224.453,336.68,227.811,336.68,231.953z M376.245,256.518c-7.217,0-13.529-7.284-15.722-17.064h31.445 C389.773,249.234,383.462,256.518,376.245,256.518z M424.341,256.518c-7.217,0-13.529-7.284-15.722-17.064h31.445 C437.871,249.234,431.559,256.518,424.341,256.518z M425.65,171.178l2.589,5.178h-20.445v-17.064h20.445l-2.589,5.179 C424.594,166.582,424.594,169.067,425.65,171.178z" fill="#000000"></path><path d="M504.503,442.253c-11.767,0-17.968,2.397-23.439,4.513c-4.862,1.88-9.062,3.503-18.03,3.503s-13.167-1.624-18.03-3.503 c-5.471-2.115-11.673-4.513-23.439-4.513c-3.968,0-7.291,0.277-10.178,0.72l58.468-116.935l35.991-6.543 c4.075-0.741,6.778-4.646,6.037-8.721c-0.741-4.076-4.64-6.777-8.721-6.038l-95.368,17.34v-34.009c0-4.142-3.358-7.5-7.5-7.5 s-7.5,3.358-7.5,7.5v36.736l-54.157,9.847c-9.718,1.767-18.157,8.096-22.574,16.931l-4.008,8.016 c-2.822,5.643-8.493,9.148-14.802,9.148h-57.798V256.002c0-4.142-3.358-7.5-7.5-7.5s-7.5,3.358-7.5,7.5v112.742h-71.36 c-7.134,0-13.443-4.548-15.699-11.315l-5.07-15.21c-4.301-12.902-16.329-21.571-29.93-21.571h-31.28v-32.581 c0-4.142-3.358-7.5-7.5-7.5s-7.5,3.358-7.5,7.5v32.581H7.503c-4.142,0-7.5,3.357-7.5,7.5c0,4.142,3.358,7.5,7.5,7.5h8.532v24.564 c0,12.976,10.557,23.532,23.532,23.532H50.06l16.507,53.646c0.871,2.832,1.917,5.605,3.128,8.302c-0.98,0.358-1.92,0.72-2.836,1.075 c-4.853,1.879-9.043,3.502-17.993,3.502c-8.938,0-13.124-1.623-17.971-3.501c-5.46-2.116-11.648-4.515-23.392-4.515 c-4.142,0-7.5,3.357-7.5,7.5c0,4.142,3.358,7.5,7.5,7.5c8.938,0,13.124,1.623,17.971,3.501c5.46,2.116,11.648,4.515,23.392,4.515 c11.752,0,17.945-2.398,23.41-4.514c4.853-1.879,9.043-3.502,17.993-3.502c8.942,0,13.13,1.623,17.979,3.501 c5.461,2.116,11.651,4.515,23.398,4.515c11.751,0,17.944-2.398,23.408-4.514c4.852-1.879,9.042-3.502,17.99-3.502 c8.953,0,13.146,1.623,18,3.502c5.466,2.116,11.661,4.514,23.416,4.514s17.95-2.398,23.415-4.514c4.854-1.879,9.047-3.502,18-3.502 s13.146,1.623,18,3.502c5.466,2.116,11.661,4.514,23.416,4.514c11.757,0,17.954-2.398,23.42-4.514 c4.856-1.879,9.05-3.502,18.007-3.502c8.95,0,13.141,1.623,17.994,3.502c5.464,2.116,11.658,4.514,23.411,4.514 c11.76,0,17.958-2.398,23.426-4.513c4.858-1.879,9.054-3.503,18.014-3.503c8.968,0,13.168,1.624,18.03,3.503 c5.471,2.115,11.672,4.513,23.439,4.513s17.968-2.397,23.439-4.513c4.862-1.88,9.062-3.503,18.03-3.503c4.142,0,7.5-3.358,7.5-7.5 C512.003,445.61,508.645,442.253,504.503,442.253z M362.129,446.766c-5.464-2.116-11.658-4.514-23.41-4.514 c-11.758,0-17.954,2.397-23.421,4.514c-4.856,1.879-9.05,3.502-18.006,3.502c-8.953,0-13.146-1.623-18.001-3.502 c-5.466-2.116-11.661-4.514-23.416-4.514s-17.95,2.397-23.416,4.514c-4.854,1.879-9.047,3.502-18,3.502s-13.146-1.623-18-3.502 c-5.466-2.116-11.661-4.514-23.416-4.514c-11.751,0-17.943,2.398-23.407,4.514c-4.852,1.879-9.042,3.502-17.991,3.502 c-8.942,0-13.13-1.623-17.979-3.501c-5.462-2.116-11.652-4.515-23.399-4.515c-1.981,0-3.792,0.073-5.48,0.196 c-1.572-3.027-2.878-6.198-3.885-9.471l-15.149-49.234h37.942c4.142,0,7.5-3.358,7.5-7.5c0-4.143-3.358-7.5-7.5-7.5H39.567 c-4.705,0-8.532-3.828-8.532-8.532v-24.564h71.36c7.134,0,13.443,4.547,15.699,11.315l5.07,15.209 c4.301,12.903,16.329,21.572,29.93,21.572h144.159c12.027,0,22.839-6.683,28.218-17.44l4.007-8.016 c2.317-4.634,6.744-7.954,11.842-8.881l110.087-20.016l-56.129,112.258c-1.317,2.633-2.854,5.164-4.563,7.561 c-2.786,0.647-6.086,1.058-10.591,1.058C371.173,450.268,366.983,448.646,362.129,446.766z" fill="#000000"></path><path d="M421.565,474.317c-11.76,0-17.958,2.398-23.426,4.513c-4.858,1.88-9.054,3.503-18.014,3.503 c-8.95,0-13.142-1.623-17.995-3.502c-5.464-2.116-11.658-4.514-23.41-4.514c-11.758,0-17.954,2.398-23.421,4.514 c-4.856,1.879-9.05,3.502-18.006,3.502c-8.954,0-13.146-1.623-18.001-3.502c-5.466-2.116-11.661-4.514-23.416-4.514 s-17.95,2.398-23.416,4.514c-4.854,1.879-9.047,3.502-18,3.502s-13.146-1.623-18-3.502c-5.466-2.116-11.661-4.514-23.416-4.514 c-11.751,0-17.943,2.398-23.407,4.514c-4.852,1.879-9.042,3.502-17.991,3.502c-8.942,0-13.13-1.623-17.979-3.501 c-5.461-2.116-11.652-4.515-23.398-4.515c-4.142,0-7.5,3.358-7.5,7.5s3.358,7.5,7.5,7.5c8.942,0,13.13,1.623,17.979,3.501 c5.461,2.116,11.651,4.515,23.398,4.515c11.751,0,17.944-2.398,23.408-4.514c4.852-1.879,9.042-3.502,17.99-3.502 c8.953,0,13.146,1.623,18,3.502c5.466,2.116,11.661,4.514,23.416,4.514s17.95-2.398,23.415-4.514c4.855-1.879,9.047-3.502,18-3.502 s13.146,1.623,18,3.502c5.466,2.116,11.661,4.514,23.416,4.514c11.757,0,17.954-2.398,23.42-4.513 c4.856-1.88,9.05-3.503,18.007-3.503c8.95,0,13.141,1.623,17.994,3.502c5.464,2.116,11.658,4.514,23.411,4.514 c11.76,0,17.958-2.398,23.426-4.513c4.858-1.88,9.054-3.503,18.014-3.503c4.142,0,7.5-3.358,7.5-7.5 S425.707,474.317,421.565,474.317z" fill="#000000"></path></svg>